<svg xmlns="http://www.w3.org/2000/svg" width="354" height="118" viewBox="626 506 354 118" font-family="Consolas, 'Fira Code', Menlo, monospace"><style> text, tspan { white-space: pre; } .g2 { fill: #f0f3f6; } .g1 { fill: #97a1ad; } </style><rect width="980" height="624" fill="#000000" rx="15"/><path d="M0 15 A15 15 0 0 1 15 0 H965 A15 15 0 0 1 980 15 V46 H0 Z" fill="#0a0a0a"/><line x1="0" y1="46" x2="980" y2="46" stroke="#2a2a2a" stroke-width="1"/><circle cx="26" cy="23" r="6" fill="#ff5f56"/><circle cx="46" cy="23" r="6" fill="#febc2e"/><circle cx="66" cy="23" r="6" fill="#28c840"/><text x="490" y="27" text-anchor="middle" font-size="12" fill="#6e7681">hemraj@sodisetti — -zsh — 96×30</text><rect x="490" y="64" width="1" height="524" fill="#2a2a2a"/><text x="20" y="528" font-size="10" fill="#aeb6c0" opacity="0">not a stock avatar — me, rendered as 130×60 chars of .,-~:;=!*#$@<animate attributeName="opacity" begin="2.50s" dur="0.4s" from="0" to="1" fill="freeze"/></text><text x="20" y="554" font-size="11" fill="#6e7681" opacity="0">// right now<animate attributeName="opacity" begin="2.65s" dur="0.4s" from="0" to="1" fill="freeze"/></text><g opacity="0"><animate attributeName="opacity" begin="2.80s" dur="0.35s" from="0" to="1" fill="freeze"/><text x="22" y="576" font-size="12" fill="#8b949e" textLength="72" lengthAdjust="spacingAndGlyphs">building</text><text x="112" y="576" font-size="12" fill="#242a33" textLength="302" lengthAdjust="spacingAndGlyphs">▏▏▏▏▏▏▏▏▏▏▏▏▏▏▏▏▏▏▏▏▏▏▏▏▏▏▏▏▏▏▏▏▏▏▏▏▏▏▏▏▏▏</text><clipPath id="bf0"><rect x="112" y="564" width="0" height="16"><animate attributeName="width" from="0" to="275" begin="2.95s" dur="0.7s" calcMode="spline" keySplines="0.2 0.7 0.3 1" fill="freeze"/></rect></clipPath><text x="112" y="576" font-size="12" fill="#f97316" clip-path="url(#bf0)" textLength="274" lengthAdjust="spacingAndGlyphs">▎▎▎▎▎▎▎▎▎▎▎▎▎▎▎▎▎▎▎▎▎▎▎▎▎▎▎▎▎▎▎▎▎▎▎▎▎▎</text><text x="486" y="576" font-size="12" fill="#c9d1d9" text-anchor="end" font-variant-numeric="tabular-nums">90%</text></g><g opacity="0"><animate attributeName="opacity" begin="3.00s" dur="0.35s" from="0" to="1" fill="freeze"/><text x="22" y="597" font-size="12" fill="#8b949e" textLength="72" lengthAdjust="spacingAndGlyphs">learning</text><text x="112" y="597" font-size="12" fill="#242a33" textLength="302" lengthAdjust="spacingAndGlyphs">▏▏▏▏▏▏▏▏▏▏▏▏▏▏▏▏▏▏▏▏▏▏▏▏▏▏▏▏▏▏▏▏▏▏▏▏▏▏▏▏▏▏</text><clipPath id="bf1"><rect x="112" y="585" width="0" height="16"><animate attributeName="width" from="0" to="195" begin="3.15s" dur="0.7s" calcMode="spline" keySplines="0.2 0.7 0.3 1" fill="freeze"/></rect></clipPath><text x="112" y="597" font-size="12" fill="#f97316" clip-path="url(#bf1)" textLength="194" lengthAdjust="spacingAndGlyphs">▎▎▎▎▎▎▎▎▎▎▎▎▎▎▎▎▎▎▎▎▎▎▎▎▎▎▎</text><text x="486" y="597" font-size="12" fill="#c9d1d9" text-anchor="end" font-variant-numeric="tabular-nums">65%</text></g><g opacity="0"><animate attributeName="opacity" begin="3.20s" dur="0.35s" from="0" to="1" fill="freeze"/><text x="22" y="618" font-size="12" fill="#8b949e" textLength="72" lengthAdjust="spacingAndGlyphs">sleeping</text><text x="112" y="618" font-size="12" fill="#242a33" textLength="302" lengthAdjust="spacingAndGlyphs">▏▏▏▏▏▏▏▏▏▏▏▏▏▏▏▏▏▏▏▏▏▏▏▏▏▏▏▏▏▏▏▏▏▏▏▏▏▏▏▏▏▏</text><clipPath id="bf2"><rect x="112" y="606" width="0" height="16"><animate attributeName="width" from="0" to="44" begin="3.35s" dur="0.7s" calcMode="spline" keySplines="0.2 0.7 0.3 1" fill="freeze"/></rect></clipPath><text x="112" y="618" font-size="12" fill="#f97316" clip-path="url(#bf2)" textLength="43" lengthAdjust="spacingAndGlyphs">▎▎▎▎▎▎</text><text x="486" y="618" font-size="12" fill="#c9d1d9" text-anchor="end" font-variant-numeric="tabular-nums">15%</text></g><g opacity="0"><animate attributeName="opacity" begin="2.50s" dur="0.4s" from="0" to="1" fill="freeze"/><text x="512" y="118" font-size="30" font-weight="bold" letter-spacing="2"><tspan fill="#f0f3f6">HEMRAJ SODISETTI</tspan><tspan fill="#f97316">▊<animate attributeName="fill-opacity" values="1;1;0;0" keyTimes="0;0.5;0.5;1" dur="1.1s" repeatCount="indefinite"/></tspan></text><text x="514" y="148" font-size="13" letter-spacing="2"><tspan fill="#8b949e">SYSTEM ENGINEER</tspan><tspan fill="#f97316"> · </tspan><tspan fill="#8b949e">BUILDER</tspan><tspan fill="#f97316"> · </tspan><tspan fill="#8b949e">PROBLEM SOLVER</tspan></text></g><g opacity="0"><animate attributeName="opacity" begin="2.90s" dur="0.4s" from="0" to="1" fill="freeze"/><rect x="512" y="174" width="452" height="94" rx="8" fill="none" stroke="#2a2a2a"/><rect x="528" y="167" width="86" height="14" fill="#000000"/><text x="534" y="177" font-size="10" letter-spacing="1.5" fill="#6e7681">// TOOLCHAIN</text><g transform="translate(542.1,203.5) scale(0.8750)"><path d="M23.8346 11.7033l-1.0073-.6236a13.7268 13.7268 0 00-.0283-.2936l.8656-.8069a.3483.3483 0 00-.1154-.578l-1.1066-.414a8.4958 8.4958 0 00-.087-.2856l.6904-.9587a.3462.3462 0 00-.2257-.5446l-1.1663-.1894a9.3574 9.3574 0 00-.1407-.2622l.49-1.0761a.3437.3437 0 00-.0274-.3361.3486.3486 0 00-.3006-.154l-1.1845.0416a6.7444 6.7444 0 00-.1873-.2268l.2723-1.153a.3472.3472 0 00-.417-.4172l-1.1532.2724a14.0183 14.0183 0 00-.2278-.1873l.0415-1.1845a.3442.3442 0 00-.49-.328l-1.076.491c-.0872-.0476-.1742-.0952-.2623-.1407l-.1903-1.1673A.3483.3483 0 0016.256.955l-.9597.6905a8.4867 8.4867 0 00-.2855-.086l-.414-1.1066a.3483.3483 0 00-.5781-.1154l-.8069.8666a9.2936 9.2936 0 00-.2936-.0284L12.2946.1683a.3462.3462 0 00-.5892 0l-.6236 1.0073a13.7383 13.7383 0 00-.2936.0284L9.9803.3374a.3462.3462 0 00-.578.1154l-.4141 1.1065c-.0962.0274-.1903.0567-.2855.086L7.744.955a.3483.3483 0 00-.5447.2258L7.009 2.348a9.3574 9.3574 0 00-.2622.1407l-1.0762-.491a.3462.3462 0 00-.49.328l.0416 1.1845a7.9826 7.9826 0 00-.2278.1873L3.8413 3.425a.3472.3472 0 00-.4171.4171l.2713 1.1531c-.0628.075-.1255.1509-.1863.2268l-1.1845-.0415a.3462.3462 0 00-.328.49l.491 1.0761a9.167 9.167 0 00-.1407.2622l-1.1662.1894a.3483.3483 0 00-.2258.5446l.6904.9587a13.303 13.303 0 00-.087.2855l-1.1065.414a.3483.3483 0 00-.1155.5781l.8656.807a9.2936 9.2936 0 00-.0283.2935l-1.0073.6236a.3442.3442 0 000 .5892l1.0073.6236c.008.0982.0182.1964.0283.2936l-.8656.8079a.3462.3462 0 00.1155.578l1.1065.4141c.0273.0962.0567.1914.087.2855l-.6904.9587a.3452.3452 0 00.2268.5447l1.1662.1893c.0456.088.0922.1751.1408.2622l-.491 1.0762a.3462.3462 0 00.328.49l1.1834-.0415c.0618.0769.1235.1528.1873.2277l-.2713 1.1541a.3462.3462 0 00.4171.4161l1.153-.2713c.075.0638.151.1255.2279.1863l-.0415 1.1845a.3442.3442 0 00.49.327l1.0761-.49c.087.0486.1741.0951.2622.1407l.1903 1.1662a.3483.3483 0 00.5447.2268l.9587-.6904a9.299 9.299 0 00.2855.087l.414 1.1066a.3452.3452 0 00.5781.1154l.8079-.8656c.0972.0111.1954.0203.2936.0294l.6236 1.0073a.3472.3472 0 00.5892 0l.6236-1.0073c.0982-.0091.1964-.0183.2936-.0294l.8069.8656a.3483.3483 0 00.578-.1154l.4141-1.1066a8.4626 8.4626 0 00.2855-.087l.9587.6904a.3452.3452 0 00.5447-.2268l.1903-1.1662c.088-.0456.1751-.0931.2622-.1407l1.0762.49a.3472.3472 0 00.49-.327l-.0415-1.1845a6.7267 6.7267 0 00.2267-.1863l1.1531.2713a.3472.3472 0 00.4171-.416l-.2713-1.1542c.0628-.0749.1255-.1508.1863-.2278l1.1845.0415a.3442.3442 0 00.328-.49l-.49-1.076c.0475-.0872.0951-.1742.1407-.2623l1.1662-.1893a.3483.3483 0 00.2258-.5447l-.6904-.9587.087-.2855 1.1066-.414a.3462.3462 0 00.1154-.5781l-.8656-.8079c.0101-.0972.0202-.1954.0283-.2936l1.0073-.6236a.3442.3442 0 000-.5892zm-6.7413 8.3551a.7138.7138 0 01.2986-1.396.714.714 0 11-.2997 1.396zm-.3422-2.3142a.649.649 0 00-.7715.5l-.3573 1.6685c-1.1035.501-2.3285.7795-3.6193.7795a8.7368 8.7368 0 01-3.6951-.814l-.3574-1.6684a.648.648 0 00-.7714-.499l-1.473.3158a8.7216 8.7216 0 01-.7613-.898h7.1676c.081 0 .1356-.0141.1356-.088v-2.536c0-.074-.0536-.0881-.1356-.0881h-2.0966v-1.6077h2.2677c.2065 0 1.1065.0587 1.394 1.2088.0901.3533.2875 1.5044.4232 1.8729.1346.413.6833 1.2381 1.2685 1.2381h3.5716a.7492.7492 0 00.1296-.0131 8.7874 8.7874 0 01-.8119.9526zM6.8369 20.024a.714.714 0 11-.2997-1.396.714.714 0 01.2997 1.396zM4.1177 8.9972a.7137.7137 0 11-1.304.5791.7137.7137 0 011.304-.579zm-.8352 1.9813l1.5347-.6824a.65.65 0 00.33-.8585l-.3158-.7147h1.2432v5.6025H3.5669a8.7753 8.7753 0 01-.2834-3.348zm6.7343-.5437V8.7836h2.9601c.153 0 1.0792.1772 1.0792.8697 0 .575-.7107.7815-1.2948.7815zm10.7574 1.4862c0 .2187-.008.4363-.0243.651h-.9c-.09 0-.1265.0586-.1265.1477v.413c0 .973-.5487 1.1846-1.0296 1.2382-.4576.0517-.9648-.1913-1.0275-.4717-.2704-1.5186-.7198-1.8436-1.4305-2.4034.8817-.5599 1.799-1.386 1.799-2.4915 0-1.1936-.819-1.9458-1.3769-2.3153-.7825-.5163-1.6491-.6195-1.883-.6195H5.4682a8.7651 8.7651 0 014.907-2.7699l1.0974 1.151a.648.648 0 00.9182.0213l1.227-1.1743a8.7753 8.7753 0 016.0044 4.2762l-.8403 1.8982a.652.652 0 00.33.8585l1.6178.7188c.0283.2875.0425.577.0425.8717zm-9.3006-9.5993a.7128.7128 0 11.984 1.0316.7137.7137 0 01-.984-1.0316zm8.3389 6.71a.7107.7107 0 01.9395-.3625.7137.7137 0 11-.9405.3635z" fill="#c9d1d9"/></g><text x="553" y="246" text-anchor="middle" font-size="7.5" letter-spacing="0.5" fill="#6e7681">RUST</text><g transform="translate(583.3,203.5) scale(0.8750)"><path d="M1.811 10.231c-.047 0-.058-.023-.035-.059l.246-.315c.023-.035.081-.058.128-.058h4.172c.046 0 .058.035.035.07l-.199.303c-.023.036-.082.07-.117.07zM.047 11.306c-.047 0-.059-.023-.035-.058l.245-.316c.023-.035.082-.058.129-.058h5.328c.047 0 .07.035.058.07l-.093.28c-.012.047-.058.07-.105.07zm2.828 1.075c-.047 0-.059-.035-.035-.07l.163-.292c.023-.035.07-.07.117-.07h2.337c.047 0 .07.035.07.082l-.023.28c0 .047-.047.082-.082.082zm12.129-2.36c-.736.187-1.239.327-1.963.514-.176.046-.187.058-.34-.117-.174-.199-.303-.327-.548-.444-.737-.362-1.45-.257-2.115.175-.795.514-1.204 1.274-1.192 2.22.011.935.654 1.706 1.577 1.835.795.105 1.46-.175 1.987-.77.105-.13.198-.27.315-.434H10.47c-.245 0-.304-.152-.222-.35.152-.362.432-.97.596-1.274a.315.315 0 01.292-.187h4.253c-.023.316-.023.631-.07.947a4.983 4.983 0 01-.958 2.29c-.841 1.11-1.94 1.8-3.33 1.986-1.145.152-2.209-.07-3.143-.77-.865-.655-1.356-1.52-1.484-2.595-.152-1.274.222-2.419.993-3.424.83-1.086 1.928-1.776 3.272-2.02 1.098-.2 2.15-.07 3.096.571.62.41 1.063.97 1.356 1.648.07.105.023.164-.117.2m3.868 6.461c-1.064-.024-2.034-.328-2.852-1.029a3.665 3.665 0 01-1.262-2.255c-.21-1.32.152-2.489.947-3.529.853-1.122 1.881-1.706 3.272-1.95 1.192-.21 2.314-.095 3.33.595.923.63 1.496 1.484 1.648 2.605.198 1.578-.257 2.863-1.344 3.962-.771.783-1.718 1.273-2.805 1.495-.315.06-.63.07-.934.106zm2.78-4.72c-.011-.153-.011-.27-.034-.387-.21-1.157-1.274-1.81-2.384-1.554-1.087.245-1.788.935-2.045 2.033-.21.912.234 1.835 1.075 2.21.643.28 1.285.244 1.905-.07.923-.48 1.425-1.228 1.484-2.233z" fill="#c9d1d9"/></g><text x="594" y="246" text-anchor="middle" font-size="7.5" letter-spacing="0.5" fill="#6e7681">GO</text><g transform="translate(624.5,203.5) scale(0.8750)"><path d="M14.25.18l.9.2.73.26.59.3.45.32.34.34.25.34.16.33.1.3.04.26.02.2-.01.13V8.5l-.05.63-.13.55-.21.46-.26.38-.3.31-.33.25-.35.19-.35.14-.33.1-.3.07-.26.04-.21.02H8.77l-.69.05-.59.14-.5.22-.41.27-.33.32-.27.35-.2.36-.15.37-.1.35-.07.32-.04.27-.02.21v3.06H3.17l-.21-.03-.28-.07-.32-.12-.35-.18-.36-.26-.36-.36-.35-.46-.32-.59-.28-.73-.21-.88-.14-1.05-.05-1.23.06-1.22.16-1.04.24-.87.32-.71.36-.57.4-.44.42-.33.42-.24.4-.16.36-.1.32-.05.24-.01h.16l.06.01h8.16v-.83H6.18l-.01-2.75-.02-.37.05-.34.11-.31.17-.28.25-.26.31-.23.38-.2.44-.18.51-.15.58-.12.64-.1.71-.06.77-.04.84-.02 1.27.05zm-6.3 1.98l-.23.33-.08.41.08.41.23.34.33.22.41.09.41-.09.33-.22.23-.34.08-.41-.08-.41-.23-.33-.33-.22-.41-.09-.41.09zm13.09 3.95l.28.06.32.12.35.18.36.27.36.35.35.47.32.59.28.73.21.88.14 1.04.05 1.23-.06 1.23-.16 1.04-.24.86-.32.71-.36.57-.4.45-.42.33-.42.24-.4.16-.36.09-.32.05-.24.02-.16-.01h-8.22v.82h5.84l.01 2.76.02.36-.05.34-.11.31-.17.29-.25.25-.31.24-.38.2-.44.17-.51.15-.58.13-.64.09-.71.07-.77.04-.84.01-1.27-.04-1.07-.14-.9-.2-.73-.25-.59-.3-.45-.33-.34-.34-.25-.34-.16-.33-.1-.3-.04-.25-.02-.2.01-.13v-5.34l.05-.64.13-.54.21-.46.26-.38.3-.32.33-.24.35-.2.35-.14.33-.1.3-.06.26-.04.21-.02.13-.01h5.84l.69-.05.59-.14.5-.21.41-.28.33-.32.27-.35.2-.36.15-.36.1-.35.07-.32.04-.28.02-.21V6.07h2.09l.14.01zm-6.47 14.25l-.23.33-.08.41.08.41.23.33.33.23.41.08.41-.08.33-.23.23-.33.08-.41-.08-.41-.23-.33-.33-.23-.41-.08-.41.08z" fill="#c9d1d9"/></g><text x="635" y="246" text-anchor="middle" font-size="7.5" letter-spacing="0.5" fill="#6e7681">PYTHON</text><g transform="translate(665.7,203.5) scale(0.8750)"><path d="M22.394 6c-.167-.29-.398-.543-.652-.69L12.926.22c-.509-.294-1.34-.294-1.848 0L2.26 5.31c-.508.293-.923 1.013-.923 1.6v10.18c0 .294.104.62.271.91.167.29.398.543.652.69l8.816 5.09c.508.293 1.34.293 1.848 0l8.816-5.09c.254-.147.485-.4.652-.69.167-.29.27-.616.27-.91V6.91c.003-.294-.1-.62-.268-.91zM12 19.11c-3.92 0-7.109-3.19-7.109-7.11 0-3.92 3.19-7.11 7.11-7.11a7.133 7.133 0 016.156 3.553l-3.076 1.78a3.567 3.567 0 00-3.08-1.78A3.56 3.56 0 008.444 12 3.56 3.56 0 0012 15.555a3.57 3.57 0 003.08-1.778l3.078 1.78A7.135 7.135 0 0112 19.11zm7.11-6.715h-.79v.79h-.79v-.79h-.79v-.79h.79v-.79h.79v.79h.79zm2.962 0h-.79v.79h-.79v-.79h-.79v-.79h.79v-.79h.79v.79h.79z" fill="#c9d1d9"/></g><text x="676" y="246" text-anchor="middle" font-size="7.5" letter-spacing="0.5" fill="#6e7681">C++</text><g transform="translate(706.9,203.5) scale(0.8750)"><path d="M13.983 11.078h2.119a.186.186 0 00.186-.185V9.006a.186.186 0 00-.186-.186h-2.119a.185.185 0 00-.185.185v1.888c0 .102.083.185.185.185m-2.954-5.43h2.118a.186.186 0 00.186-.186V3.574a.186.186 0 00-.186-.185h-2.118a.185.185 0 00-.185.185v1.888c0 .102.082.185.185.185m0 2.716h2.118a.187.187 0 00.186-.186V6.29a.186.186 0 00-.186-.185h-2.118a.185.185 0 00-.185.185v1.887c0 .102.082.185.185.186m-2.93 0h2.12a.186.186 0 00.184-.186V6.29a.185.185 0 00-.185-.185H8.1a.185.185 0 00-.185.185v1.887c0 .102.083.185.185.186m-2.964 0h2.119a.186.186 0 00.185-.186V6.29a.185.185 0 00-.185-.185H5.136a.186.186 0 00-.186.185v1.887c0 .102.084.185.186.186m5.893 2.715h2.118a.186.186 0 00.186-.185V9.006a.186.186 0 00-.186-.186h-2.118a.185.185 0 00-.185.185v1.888c0 .102.082.185.185.185m-2.93 0h2.12a.185.185 0 00.184-.185V9.006a.185.185 0 00-.184-.186h-2.12a.185.185 0 00-.184.185v1.888c0 .102.083.185.185.185m-2.964 0h2.119a.185.185 0 00.185-.185V9.006a.185.185 0 00-.184-.186h-2.12a.186.186 0 00-.186.186v1.887c0 .102.084.185.186.185m-2.92 0h2.12a.185.185 0 00.184-.185V9.006a.185.185 0 00-.184-.186h-2.12a.185.185 0 00-.184.185v1.888c0 .102.082.185.185.185M23.763 9.89c-.065-.051-.672-.51-1.954-.51-.338.001-.676.03-1.01.087-.248-1.7-1.653-2.53-1.716-2.566l-.344-.199-.226.327c-.284.438-.49.922-.612 1.43-.23.97-.09 1.882.403 2.661-.595.332-1.55.413-1.744.42H.751a.751.751 0 00-.75.748 11.376 11.376 0 00.692 4.062c.545 1.428 1.355 2.48 2.41 3.124 1.18.723 3.1 1.137 5.275 1.137.983.003 1.963-.086 2.93-.266a12.248 12.248 0 003.823-1.389c.98-.567 1.86-1.288 2.61-2.136 1.252-1.418 1.998-2.997 2.553-4.4h.221c1.372 0 2.215-.549 2.68-1.009.309-.293.55-.65.707-1.046l.098-.288Z" fill="#c9d1d9"/></g><text x="717" y="246" text-anchor="middle" font-size="7.5" letter-spacing="0.5" fill="#6e7681">DOCKER</text><g transform="translate(748.1,203.5) scale(0.8750)"><path d="M10.204 14.35l.007.01-.999 2.413a5.171 5.171 0 0 1-2.075-2.597l2.578-.437.004.005a.44.44 0 0 1 .484.606zm-.833-2.129a.44.44 0 0 0 .173-.756l.002-.011L7.585 9.7a5.143 5.143 0 0 0-.73 3.255l2.514-.725.002-.009zm1.145-1.98a.44.44 0 0 0 .699-.337l.01-.005.15-2.62a5.144 5.144 0 0 0-3.01 1.442l2.147 1.523.004-.002zm.76 2.75l.723.349.722-.347.18-.78-.5-.623h-.804l-.5.623.179.779zm1.5-3.095a.44.44 0 0 0 .7.336l.008.003 2.134-1.513a5.188 5.188 0 0 0-2.992-1.442l.148 2.615.002.001zm10.876 5.97l-5.773 7.181a1.6 1.6 0 0 1-1.248.594l-9.261.003a1.6 1.6 0 0 1-1.247-.596l-5.776-7.18a1.583 1.583 0 0 1-.307-1.34L2.1 5.573c.108-.47.425-.864.863-1.073L11.305.513a1.606 1.606 0 0 1 1.385 0l8.345 3.985c.438.209.755.604.863 1.073l2.062 8.955c.108.47-.005.963-.308 1.34zm-3.289-2.057c-.042-.01-.103-.026-.145-.034-.174-.033-.315-.025-.479-.038-.35-.037-.638-.067-.895-.148-.105-.04-.18-.165-.216-.216l-.201-.059a6.45 6.45 0 0 0-.105-2.332 6.465 6.465 0 0 0-.936-2.163c.052-.047.15-.133.177-.159.008-.09.001-.183.094-.282.197-.185.444-.338.743-.522.142-.084.273-.137.415-.242.032-.024.076-.062.11-.089.24-.191.295-.52.123-.736-.172-.216-.506-.236-.745-.045-.034.027-.08.062-.111.088-.134.116-.217.23-.33.35-.246.25-.45.458-.673.609-.097.056-.239.037-.303.033l-.19.135a6.545 6.545 0 0 0-4.146-2.003l-.012-.223c-.065-.062-.143-.115-.163-.25-.022-.268.015-.557.057-.905.023-.163.061-.298.068-.475.001-.04-.001-.099-.001-.142 0-.306-.224-.555-.5-.555-.275 0-.499.249-.499.555l.001.014c0 .041-.002.092 0 .128.006.177.044.312.067.475.042.348.078.637.056.906a.545.545 0 0 1-.162.258l-.012.211a6.424 6.424 0 0 0-4.166 2.003 8.373 8.373 0 0 1-.18-.128c-.09.012-.18.04-.297-.029-.223-.15-.427-.358-.673-.608-.113-.12-.195-.234-.329-.349-.03-.026-.077-.062-.111-.088a.594.594 0 0 0-.348-.132.481.481 0 0 0-.398.176c-.172.216-.117.546.123.737l.007.005.104.083c.142.105.272.159.414.242.299.185.546.338.743.522.076.082.09.226.1.288l.16.143a6.462 6.462 0 0 0-1.02 4.506l-.208.06c-.055.072-.133.184-.215.217-.257.081-.546.11-.895.147-.164.014-.305.006-.48.039-.037.007-.09.02-.133.03l-.004.002-.007.002c-.295.071-.484.342-.423.608.061.267.349.429.645.365l.007-.001.01-.003.129-.029c.17-.046.294-.113.448-.172.33-.118.604-.217.87-.256.112-.009.23.069.288.101l.217-.037a6.5 6.5 0 0 0 2.88 3.596l-.09.218c.033.084.069.199.044.282-.097.252-.263.517-.452.813-.091.136-.185.242-.268.399-.02.037-.045.095-.064.134-.128.275-.034.591.213.71.248.12.556-.007.69-.282v-.002c.02-.039.046-.09.062-.127.07-.162.094-.301.144-.458.132-.332.205-.68.387-.897.05-.06.13-.082.215-.105l.113-.205a6.453 6.453 0 0 0 4.609.012l.106.192c.086.028.18.042.256.155.136.232.229.507.342.84.05.156.074.295.145.457.016.037.043.09.062.129.133.276.442.402.69.282.247-.118.341-.435.213-.71-.02-.039-.045-.096-.065-.134-.083-.156-.177-.261-.268-.398-.19-.296-.346-.541-.443-.793-.04-.13.007-.21.038-.294-.018-.022-.059-.144-.083-.202a6.499 6.499 0 0 0 2.88-3.622c.064.01.176.03.213.038.075-.05.144-.114.28-.104.266.039.54.138.87.256.154.06.277.128.448.173.036.01.088.019.13.028l.009.003.007.001c.297.064.584-.098.645-.365.06-.266-.128-.537-.423-.608zM16.4 9.701l-1.95 1.746v.005a.44.44 0 0 0 .173.757l.003.01 2.526.728a5.199 5.199 0 0 0-.108-1.674A5.208 5.208 0 0 0 16.4 9.7zm-4.013 5.325a.437.437 0 0 0-.404-.232.44.44 0 0 0-.372.233h-.002l-1.268 2.292a5.164 5.164 0 0 0 3.326.003l-1.27-2.296h-.01zm1.888-1.293a.44.44 0 0 0-.27.036.44.44 0 0 0-.214.572l-.003.004 1.01 2.438a5.15 5.15 0 0 0 2.081-2.615l-2.6-.44-.004.005z" fill="#c9d1d9"/></g><text x="759" y="246" text-anchor="middle" font-size="7.5" letter-spacing="0.5" fill="#6e7681">K8S</text><g transform="translate(789.3,203.5) scale(0.8750)"><path d="M6.763 10.036c0 .296.032.535.088.71.064.176.144.368.256.576.04.063.056.127.056.183 0 .08-.048.16-.152.24l-.503.335a.383.383 0 0 1-.208.072c-.08 0-.16-.04-.239-.112a2.47 2.47 0 0 1-.287-.375 6.18 6.18 0 0 1-.248-.471c-.622.734-1.405 1.101-2.347 1.101-.67 0-1.205-.191-1.596-.574-.391-.384-.59-.894-.59-1.533 0-.678.239-1.23.726-1.644.487-.415 1.133-.623 1.955-.623.272 0 .551.024.846.064.296.04.6.104.918.176v-.583c0-.607-.127-1.03-.375-1.277-.255-.248-.686-.367-1.3-.367-.28 0-.568.031-.863.103-.295.072-.583.16-.862.272a2.287 2.287 0 0 1-.28.104.488.488 0 0 1-.127.023c-.112 0-.168-.08-.168-.247v-.391c0-.128.016-.224.056-.28a.597.597 0 0 1 .224-.167c.279-.144.614-.264 1.005-.36a4.84 4.84 0 0 1 1.246-.151c.95 0 1.644.216 2.091.647.439.43.662 1.085.662 1.963v2.586zm-3.24 1.214c.263 0 .534-.048.822-.144.287-.096.543-.271.758-.51.128-.152.224-.32.272-.512.047-.191.08-.423.08-.694v-.335a6.66 6.66 0 0 0-.735-.136 6.02 6.02 0 0 0-.75-.048c-.535 0-.926.104-1.19.32-.263.215-.39.518-.39.917 0 .375.095.655.295.846.191.2.47.296.838.296zm6.41.862c-.144 0-.24-.024-.304-.08-.064-.048-.12-.16-.168-.311L7.586 5.55a1.398 1.398 0 0 1-.072-.32c0-.128.064-.2.191-.2h.783c.151 0 .255.025.31.08.065.048.113.16.16.312l1.342 5.284 1.245-5.284c.04-.16.088-.264.151-.312a.549.549 0 0 1 .32-.08h.638c.152 0 .256.025.32.08.063.048.12.16.151.312l1.261 5.348 1.381-5.348c.048-.16.104-.264.16-.312a.52.52 0 0 1 .311-.08h.743c.127 0 .2.065.2.2 0 .04-.009.08-.017.128a1.137 1.137 0 0 1-.056.2l-1.923 6.17c-.048.16-.104.263-.168.311a.51.51 0 0 1-.303.08h-.687c-.151 0-.255-.024-.32-.08-.063-.056-.119-.16-.15-.32l-1.238-5.148-1.23 5.14c-.04.16-.087.264-.15.32-.065.056-.177.08-.32.08zm10.256.215c-.415 0-.83-.048-1.229-.143-.399-.096-.71-.2-.918-.32-.128-.071-.215-.151-.247-.223a.563.563 0 0 1-.048-.224v-.407c0-.167.064-.247.183-.247.048 0 .096.008.144.024.048.016.12.048.2.08.271.12.566.215.878.279.319.064.63.096.95.096.502 0 .894-.088 1.165-.264a.86.86 0 0 0 .415-.758.777.777 0 0 0-.215-.559c-.144-.151-.416-.287-.807-.415l-1.157-.36c-.583-.183-1.014-.454-1.277-.813a1.902 1.902 0 0 1-.4-1.158c0-.335.073-.63.216-.886.144-.255.335-.479.575-.654.24-.184.51-.32.83-.415.32-.096.655-.136 1.006-.136.175 0 .359.008.535.032.183.024.35.056.518.088.16.04.312.08.455.127.144.048.256.096.336.144a.69.69 0 0 1 .24.2.43.43 0 0 1 .071.263v.375c0 .168-.064.256-.184.256a.83.83 0 0 1-.303-.096 3.652 3.652 0 0 0-1.532-.311c-.455 0-.815.071-1.062.223-.248.152-.375.383-.375.71 0 .224.08.416.24.567.159.152.454.304.877.44l1.134.358c.574.184.99.44 1.237.767.247.327.367.702.367 1.117 0 .343-.072.655-.207.926-.144.272-.336.511-.583.703-.248.2-.543.343-.886.447-.36.111-.734.167-1.142.167zM21.698 16.207c-2.626 1.94-6.442 2.969-9.722 2.969-4.598 0-8.74-1.7-11.87-4.526-.247-.223-.024-.527.272-.351 3.384 1.963 7.559 3.153 11.877 3.153 2.914 0 6.114-.607 9.06-1.852.439-.2.814.287.383.607zM22.792 14.961c-.336-.43-2.22-.207-3.074-.103-.255.032-.295-.192-.063-.36 1.5-1.053 3.967-.75 4.254-.399.287.36-.08 2.826-1.485 4.007-.215.184-.423.088-.327-.151.32-.79 1.03-2.57.695-2.994z" fill="#c9d1d9"/></g><text x="800" y="246" text-anchor="middle" font-size="7.5" letter-spacing="0.5" fill="#6e7681">AWS</text><g transform="translate(830.5,203.5) scale(0.8750)"><path d="M12.19 2.38a9.344 9.344 0 0 0-9.234 6.893c.053-.02-.055.013 0 0-3.875 2.551-3.922 8.11-.247 10.941l.006-.007-.007.03a6.717 6.717 0 0 0 4.077 1.356h5.173l.03.03h5.192c6.687.053 9.376-8.605 3.835-12.35a9.365 9.365 0 0 0-2.821-4.552l-.043.043.006-.05A9.344 9.344 0 0 0 12.19 2.38zm-.358 4.146c1.244-.04 2.518.368 3.486 1.15a5.186 5.186 0 0 1 1.862 4.078v.518c3.53-.07 3.53 5.262 0 5.193h-5.193l-.008.009v-.04H6.785a2.59 2.59 0 0 1-1.067-.23h.001a2.597 2.597 0 1 1 3.437-3.437l3.013-3.012A6.747 6.747 0 0 0 8.11 8.24c.018-.01.04-.026.054-.023a5.186 5.186 0 0 1 3.67-1.69z" fill="#c9d1d9"/></g><text x="841" y="246" text-anchor="middle" font-size="7.5" letter-spacing="0.5" fill="#6e7681">GCP</text><g transform="translate(871.7,203.5) scale(0.8750)"><path d="M12.005 0L4.952 7.053a9.865 9.865 0 000 14.022 9.866 9.866 0 0014.022 0c3.984-3.9 3.986-10.205.085-14.023l-1.744 1.743c2.904 2.905 2.904 7.634 0 10.538s-7.634 2.904-10.538 0-2.904-7.634 0-10.538l4.647-4.646.582-.665zm3.568 3.899a1.327 1.327 0 00-1.327 1.327 1.327 1.327 0 001.327 1.328A1.327 1.327 0 0016.9 5.226 1.327 1.327 0 0015.573 3.9z" fill="#c9d1d9"/></g><text x="882" y="246" text-anchor="middle" font-size="7.5" letter-spacing="0.5" fill="#6e7681">PYTORCH</text><g transform="translate(912.9,203.5) scale(0.8750)"><path d="M8.948 8.798v-1.43a6.7 6.7 0 0 1 .424-.018c3.922-.124 6.493 3.374 6.493 3.374s-2.774 3.851-5.75 3.851c-.398 0-.787-.062-1.158-.185v-4.346c1.528.185 1.837.857 2.747 2.385l2.04-1.714s-1.492-1.952-4-1.952a6.016 6.016 0 0 0-.796.035m0-4.735v2.138l.424-.027c5.45-.185 9.01 4.47 9.01 4.47s-4.08 4.964-8.33 4.964c-.37 0-.733-.035-1.095-.097v1.325c.3.035.61.062.91.062 3.957 0 6.82-2.023 9.593-4.408.459.371 2.34 1.263 2.73 1.652-2.633 2.208-8.772 3.984-12.253 3.984-.335 0-.653-.018-.971-.053v1.864H24V4.063zm0 10.326v1.131c-3.657-.654-4.673-4.46-4.673-4.46s1.758-1.944 4.673-2.262v1.237H8.94c-1.528-.186-2.73 1.245-2.73 1.245s.68 2.412 2.739 3.11M2.456 10.9s2.164-3.197 6.5-3.533V6.201C4.153 6.59 0 10.653 0 10.653s2.35 6.802 8.948 7.42v-1.237c-4.84-.6-6.492-5.936-6.492-5.936z" fill="#c9d1d9"/></g><text x="923" y="246" text-anchor="middle" font-size="7.5" letter-spacing="0.5" fill="#6e7681">CUDA</text></g><g opacity="0"><animate attributeName="opacity" begin="3.40s" dur="0.4s" from="0" to="1" fill="freeze"/><text x="512" y="322" font-size="13" letter-spacing="1"><tspan fill="#f97316">&gt;</tspan><tspan fill="#e6edf3"> GITHUB STATS</tspan></text><line x1="640" y1="318" x2="964" y2="318" stroke="#2a2a2a"/><text x="512" y="356" font-size="13"><tspan fill="#f97316">Repos</tspan><tspan fill="#2d333b"> ............... </tspan><tspan fill="#e6edf3">14</tspan></text><text x="744" y="356" font-size="13"><tspan fill="#f97316">Joined</tspan><tspan fill="#2d333b"> ....... </tspan><tspan fill="#e6edf3">June 2023</tspan></text></g><text x="512" y="406" font-size="13" opacity="0"><tspan fill="#f97316">$</tspan><tspan fill="#e6edf3"> tail -1 ~/.plan</tspan><animate attributeName="opacity" begin="3.90s" dur="0.4s" from="0" to="1" fill="freeze"/></text><text x="512" y="436" font-size="13" fill="#8b949e" opacity="0">tools change. shipping doesn't.<animate attributeName="opacity" begin="4.05s" dur="0.4s" from="0" to="1" fill="freeze"/></text><text x="512" y="476" font-size="13" opacity="0"><tspan fill="#f97316">$</tspan><tspan fill="#e6edf3"> open a PR</tspan> <tspan fill="#e6edf3">▊<animate attributeName="fill-opacity" values="1;1;0;0" keyTimes="0;0.5;0.5;1" dur="1.1s" repeatCount="indefinite"/></tspan><animate attributeName="opacity" begin="4.30s" dur="0.4s" from="0" to="1" fill="freeze"/></text><g opacity="0"><animate attributeName="opacity" begin="4.50s" dur="0.4s" from="0" to="1" fill="freeze"/><g transform="translate(512,512)"><rect x="1" y="1" width="104" height="38" rx="7" fill="#0a0a0a" stroke="#f97316" stroke-width="1.2"/><g transform="translate(15,12.0) scale(0.667)"><rect x="1.5" y="4" width="21" height="16" rx="2" fill="none" stroke="#f97316" stroke-width="2"/><path d="M2 6 L12 13 L22 6" fill="none" stroke="#f97316" stroke-width="2" stroke-linecap="round"/></g><text x="42" y="24" font-size="12" letter-spacing="1.5" fill="#f97316" font-weight="bold">EMAIL</text></g><g transform="translate(632,512)"><rect x="1" y="1" width="129" height="38" rx="7" fill="#0a0a0a" stroke="#30363d" stroke-width="1.2"/><g transform="translate(15,12.0) scale(0.667)"><path d="M20.447 20.452h-3.554v-5.569c0-1.328-.027-3.037-1.852-3.037-1.853 0-2.136 1.445-2.136 2.939v5.667H9.351V9h3.414v1.561h.046c.477-.9 1.637-1.85 3.37-1.85 3.601 0 4.267 2.37 4.267 5.455v6.286zM5.337 7.433c-1.144 0-2.063-.926-2.063-2.065 0-1.138.92-2.063 2.063-2.063 1.14 0 2.064.925 2.064 2.063 0 1.139-.925 2.065-2.064 2.065zm1.782 13.019H3.555V9h3.564v11.452zM22.225 0H1.771C.792 0 0 .774 0 1.729v20.542C0 23.227.792 24 1.771 24h20.451C23.2 24 24 23.227 24 22.271V1.729C24 .774 23.2 0 22.222 0h.003z" fill="#c9d1d9"/></g><text x="42" y="24" font-size="12" letter-spacing="1.5" fill="#8b949e" font-weight="bold">LINKEDIN</text></g></g></svg>